<mxfile host="app.diagrams.net" modified="2020-08-17T20:08:14.771Z" agent="5.0 (Windows NT 10.0; Win64; x64) AppleWebKit/537.36 (KHTML, like Gecko) Chrome/84.0.4147.125 Safari/537.36" etag="u_dZPDYFsndMmquuPCNB" version="13.6.2" type="github">
  <diagram id="EmlVeWdNHWqG-HsblOHk" name="Page-1">
    <mxGraphModel dx="2523" dy="876" grid="1" gridSize="10" guides="1" tooltips="1" connect="1" arrows="1" fold="1" page="1" pageScale="1" pageWidth="850" pageHeight="1100" math="0" shadow="0">
      <root>
        <mxCell id="0" />
        <mxCell id="1" parent="0" />
        <mxCell id="BPLZNxsTZmLnbDWGY6EG-1" value="DomMethods" style="swimlane;fontStyle=1;align=center;verticalAlign=top;childLayout=stackLayout;horizontal=1;startSize=26;horizontalStack=0;resizeParent=1;resizeParentMax=0;resizeLast=0;collapsible=1;marginBottom=0;" parent="1" vertex="1">
          <mxGeometry x="-760" y="40" width="260" height="240" as="geometry" />
        </mxCell>
        <mxCell id="BPLZNxsTZmLnbDWGY6EG-2" value="+ CENTER: DOM node&#xa;+ DISPLAY: DOM node&#xa;+ MENU: DOM node&#xa;+ FILTERS: DOM node&#xa;+ SEARCHBOX: DOM node&#xa;+ BODY: DOM node&#xa;+ ROOT: DOM node" style="text;strokeColor=none;align=left;verticalAlign=top;spacingLeft=4;spacingRight=4;overflow=hidden;rotatable=0;points=[[0,0.5],[1,0.5]];portConstraint=eastwest;fillColor=#ffffff;" parent="BPLZNxsTZmLnbDWGY6EG-1" vertex="1">
          <mxGeometry y="26" width="260" height="114" as="geometry" />
        </mxCell>
        <mxCell id="BPLZNxsTZmLnbDWGY6EG-3" value="" style="line;strokeWidth=1;fillColor=none;align=left;verticalAlign=middle;spacingTop=-1;spacingLeft=3;spacingRight=3;rotatable=0;labelPosition=right;points=[];portConstraint=eastwest;" parent="BPLZNxsTZmLnbDWGY6EG-1" vertex="1">
          <mxGeometry y="140" width="260" height="8" as="geometry" />
        </mxCell>
        <mxCell id="BPLZNxsTZmLnbDWGY6EG-4" value="+ initialize(selector, single): DOM node&#xa;+ insertElement(root, element, position)&#xa;+ addListener(selector, event, func, once)&#xa;+ removeListener(selector, event, func, once)" style="text;strokeColor=none;align=left;verticalAlign=top;spacingLeft=4;spacingRight=4;overflow=hidden;rotatable=0;points=[[0,0.5],[1,0.5]];portConstraint=eastwest;fillColor=#ffffff;" parent="BPLZNxsTZmLnbDWGY6EG-1" vertex="1">
          <mxGeometry y="148" width="260" height="92" as="geometry" />
        </mxCell>
        <mxCell id="9VmN0dgmtJ_7vDDzthu5-1" value="" style="endArrow=classic;html=1;exitX=0.458;exitY=1.011;exitDx=0;exitDy=0;exitPerimeter=0;entryX=0.5;entryY=0;entryDx=0;entryDy=0;strokeWidth=3;" edge="1" parent="1" source="BPLZNxsTZmLnbDWGY6EG-4" target="BPLZNxsTZmLnbDWGY6EG-5">
          <mxGeometry width="50" height="50" relative="1" as="geometry">
            <mxPoint x="20" y="420" as="sourcePoint" />
            <mxPoint x="70" y="370" as="targetPoint" />
          </mxGeometry>
        </mxCell>
        <mxCell id="BPLZNxsTZmLnbDWGY6EG-5" value="Query" style="swimlane;fontStyle=1;align=center;verticalAlign=top;childLayout=stackLayout;horizontal=1;startSize=26;horizontalStack=0;resizeParent=1;resizeParentMax=0;resizeLast=0;collapsible=1;marginBottom=0;" parent="1" vertex="1">
          <mxGeometry x="-760" y="320" width="240" height="400" as="geometry" />
        </mxCell>
        <mxCell id="BPLZNxsTZmLnbDWGY6EG-6" value="+ authURL: string&#xa;+ serverURL: string&#xa;+ filterURL: string&#xa;+ hierarchyURL: string&#xa;+ hierarchyDetailURL: string&#xa;+ hierarchyDetailExportURL: string&#xa;+ hierarchyExportURL: string&#xa;+ hierarchySearchURL: string&#xa;+ linkerURL: string&#xa;+ linkerGetEditURL: string&#xa;+ linkerDeleteURL: string&#xa;+ linkerUpdateURL: string&#xa;+ linkerCreateURL: string&#xa;+ linkerPredictionNewURL: string&#xa;+ linkerPredictionExistingURL: string&#xa;+ uploadURL: string&#xa;+ dictionaryMinistryURL: string&#xa;+ dictionaryTerritoryURL: string&#xa;+ dictionaryProgramURL: string&#xa;+ dictionaryEventURL: string" style="text;strokeColor=none;align=left;verticalAlign=top;spacingLeft=4;spacingRight=4;overflow=hidden;rotatable=0;points=[[0,0.5],[1,0.5]];portConstraint=eastwest;fillColor=#ffffff;" parent="BPLZNxsTZmLnbDWGY6EG-5" vertex="1">
          <mxGeometry y="26" width="240" height="294" as="geometry" />
        </mxCell>
        <mxCell id="BPLZNxsTZmLnbDWGY6EG-7" value="" style="line;strokeWidth=1;fillColor=none;align=left;verticalAlign=middle;spacingTop=-1;spacingLeft=3;spacingRight=3;rotatable=0;labelPosition=right;points=[];portConstraint=eastwest;" parent="BPLZNxsTZmLnbDWGY6EG-5" vertex="1">
          <mxGeometry y="320" width="240" height="8" as="geometry" />
        </mxCell>
        <mxCell id="BPLZNxsTZmLnbDWGY6EG-8" value="+ sendQuery(urlm options, method): json&#xa;+ deleteQuery(uniqueCode): json&#xa;+ authQuery(username, password): json" style="text;strokeColor=none;align=left;verticalAlign=top;spacingLeft=4;spacingRight=4;overflow=hidden;rotatable=0;points=[[0,0.5],[1,0.5]];portConstraint=eastwest;fillColor=#ffffff;" parent="BPLZNxsTZmLnbDWGY6EG-5" vertex="1">
          <mxGeometry y="328" width="240" height="72" as="geometry" />
        </mxCell>
        <mxCell id="9VmN0dgmtJ_7vDDzthu5-2" value="" style="endArrow=classic;html=1;exitX=0.5;exitY=1;exitDx=0;exitDy=0;entryX=0.5;entryY=0;entryDx=0;entryDy=0;strokeWidth=3;" edge="1" parent="1" source="BPLZNxsTZmLnbDWGY6EG-5" target="BPLZNxsTZmLnbDWGY6EG-9">
          <mxGeometry width="50" height="50" relative="1" as="geometry">
            <mxPoint x="20" y="420" as="sourcePoint" />
            <mxPoint x="70" y="370" as="targetPoint" />
            <Array as="points">
              <mxPoint x="-640" y="760" />
              <mxPoint x="-480" y="760" />
              <mxPoint x="-480" y="40" />
              <mxPoint x="-360" y="40" />
            </Array>
          </mxGeometry>
        </mxCell>
        <mxCell id="BPLZNxsTZmLnbDWGY6EG-9" value="MainView" style="swimlane;fontStyle=1;align=center;verticalAlign=top;childLayout=stackLayout;horizontal=1;startSize=26;horizontalStack=0;resizeParent=1;resizeParentMax=0;resizeLast=0;collapsible=1;marginBottom=0;" parent="1" vertex="1">
          <mxGeometry x="-440" y="80" width="160" height="520" as="geometry" />
        </mxCell>
        <mxCell id="BPLZNxsTZmLnbDWGY6EG-10" value="+ filterYear: DOM node&#xa;+ filterMinistry: DOM node&#xa;+ filterTerritory: DOM node&#xa;+ filterProgram: DOM node&#xa;+ filterReadyDisplay: DOM node&#xa;+ filterReadyInput: DOM node&#xa;+ filterReadyAll: DOM node&#xa;+ filterReset: DOM node&#xa;+ navMain: DOM node&#xa;+ navLinker: DOM node&#xa;+ navUpload: DOM node&#xa;+ navExport: DOM node&#xa;+ navExit: DOM node&#xa;+ dicMinistry: DOM node&#xa;+ dicTerritory: DOM node&#xa;+ dicProgram: DOM node&#xa;+ OVERLAY: DOM node&#xa;+ MAIN: DOM node&#xa;+ HIERARCHY: DOM node&#xa;+ LINKER: DOM node&#xa;+ SEARCH: DOM node&#xa;+ UPLOAD: DOM node&#xa;+ DICTIONARY: DOM node" style="text;strokeColor=none;align=left;verticalAlign=top;spacingLeft=4;spacingRight=4;overflow=hidden;rotatable=0;points=[[0,0.5],[1,0.5]];portConstraint=eastwest;fillColor=#ffffff;" parent="BPLZNxsTZmLnbDWGY6EG-9" vertex="1">
          <mxGeometry y="26" width="160" height="334" as="geometry" />
        </mxCell>
        <mxCell id="BPLZNxsTZmLnbDWGY6EG-11" value="" style="line;strokeWidth=1;fillColor=none;align=left;verticalAlign=middle;spacingTop=-1;spacingLeft=3;spacingRight=3;rotatable=0;labelPosition=right;points=[];portConstraint=eastwest;" parent="BPLZNxsTZmLnbDWGY6EG-9" vertex="1">
          <mxGeometry y="360" width="160" height="8" as="geometry" />
        </mxCell>
        <mxCell id="BPLZNxsTZmLnbDWGY6EG-12" value="+ mainInit()&#xa;+ disableUI(token)&#xa;+ enableOverlay(token)&#xa;+ getFilterValue()&#xa;+ mainListenersInit()&#xa;+ fillFilters()&#xa;+ errorMessage()&#xa;+ clearDisplay()&#xa;+ removeInactiveListeners()&#xa;+ exportFn()" style="text;strokeColor=none;align=left;verticalAlign=top;spacingLeft=4;spacingRight=4;overflow=hidden;rotatable=0;points=[[0,0.5],[1,0.5]];portConstraint=eastwest;fillColor=#ffffff;" parent="BPLZNxsTZmLnbDWGY6EG-9" vertex="1">
          <mxGeometry y="368" width="160" height="152" as="geometry" />
        </mxCell>
        <mxCell id="9VmN0dgmtJ_7vDDzthu5-3" value="" style="endArrow=classic;html=1;strokeWidth=3;exitX=0.5;exitY=1;exitDx=0;exitDy=0;entryX=0.5;entryY=0;entryDx=0;entryDy=0;" edge="1" parent="1" source="BPLZNxsTZmLnbDWGY6EG-9" target="BPLZNxsTZmLnbDWGY6EG-17">
          <mxGeometry width="50" height="50" relative="1" as="geometry">
            <mxPoint x="-100" y="420" as="sourcePoint" />
            <mxPoint x="-50" y="370" as="targetPoint" />
            <Array as="points">
              <mxPoint x="-360" y="620" />
              <mxPoint x="-310" y="620" />
              <mxPoint x="-260" y="620" />
              <mxPoint x="-260" y="20" />
              <mxPoint x="-150" y="20" />
            </Array>
          </mxGeometry>
        </mxCell>
        <mxCell id="BPLZNxsTZmLnbDWGY6EG-17" value="Search" style="swimlane;fontStyle=1;align=center;verticalAlign=top;childLayout=stackLayout;horizontal=1;startSize=26;horizontalStack=0;resizeParent=1;resizeParentMax=0;resizeLast=0;collapsible=1;marginBottom=0;" parent="1" vertex="1">
          <mxGeometry x="-240" y="50" width="180" height="560" as="geometry" />
        </mxCell>
        <mxCell id="BPLZNxsTZmLnbDWGY6EG-18" value="+ applyButton: Array&#xa;+ searchButton: Array&#xa;+ searchInput: Array&#xa;+ goToButton: Array&#xa;+ prevButton: Array&#xa;+ nextButton: Array&#xa;+ goToInput: Array&#xa;+ pagination1: Array&#xa;+ pagination2: Array&#xa;+ pagination3: Array&#xa;+ paginationDiv: Array&#xa;+ pagination4: Array&#xa;+ pagination5: Array&#xa;+ pagination6: Array&#xa;+ pagination7: Array&#xa;+ navNums: Array&#xa;+ navNumValue: Array&#xa;+ searchUseFilters: Array&#xa;+ funcs: Array&#xa;+ buttons: Array&#xa;+ searchColorTextFn: Array&#xa;+ linkerCurrentState: Array&#xa;+ sourceView: Array&#xa;+ filters: Array&#xa;+ filterApply: Array" style="text;strokeColor=none;align=left;verticalAlign=top;spacingLeft=4;spacingRight=4;overflow=hidden;rotatable=0;points=[[0,0.5],[1,0.5]];portConstraint=eastwest;fillColor=#ffffff;" parent="BPLZNxsTZmLnbDWGY6EG-17" vertex="1">
          <mxGeometry y="26" width="180" height="364" as="geometry" />
        </mxCell>
        <mxCell id="BPLZNxsTZmLnbDWGY6EG-19" value="" style="line;strokeWidth=1;fillColor=none;align=left;verticalAlign=middle;spacingTop=-1;spacingLeft=3;spacingRight=3;rotatable=0;labelPosition=right;points=[];portConstraint=eastwest;" parent="BPLZNxsTZmLnbDWGY6EG-17" vertex="1">
          <mxGeometry y="390" width="180" height="8" as="geometry" />
        </mxCell>
        <mxCell id="BPLZNxsTZmLnbDWGY6EG-20" value="+ searchInit()&#xa;+ nextFn()&#xa;+ prevFn()&#xa;+ goToFn()&#xa;+ applyFn()&#xa;+ searchFn()&#xa;+ addListeners()&#xa;+ removeListeners()&#xa;+ checkPagination()&#xa;+ searchColorText()&#xa;+ paginationNumbersHandler()" style="text;strokeColor=none;align=left;verticalAlign=top;spacingLeft=4;spacingRight=4;overflow=hidden;rotatable=0;points=[[0,0.5],[1,0.5]];portConstraint=eastwest;fillColor=#ffffff;" parent="BPLZNxsTZmLnbDWGY6EG-17" vertex="1">
          <mxGeometry y="398" width="180" height="162" as="geometry" />
        </mxCell>
        <mxCell id="BPLZNxsTZmLnbDWGY6EG-33" value="Upload" style="swimlane;fontStyle=1;align=center;verticalAlign=top;childLayout=stackLayout;horizontal=1;startSize=26;horizontalStack=0;resizeParent=1;resizeParentMax=0;resizeLast=0;collapsible=1;marginBottom=0;" parent="1" vertex="1">
          <mxGeometry x="-440" y="680" width="160" height="160" as="geometry" />
        </mxCell>
        <mxCell id="BPLZNxsTZmLnbDWGY6EG-34" value="+ uploadBox: DOM node&#xa;+ sendButton: DOM node&#xa;+ uploadFn: DOM node" style="text;strokeColor=none;align=left;verticalAlign=top;spacingLeft=4;spacingRight=4;overflow=hidden;rotatable=0;points=[[0,0.5],[1,0.5]];portConstraint=eastwest;fillColor=#ffffff;" parent="BPLZNxsTZmLnbDWGY6EG-33" vertex="1">
          <mxGeometry y="26" width="160" height="54" as="geometry" />
        </mxCell>
        <mxCell id="BPLZNxsTZmLnbDWGY6EG-35" value="" style="line;strokeWidth=1;fillColor=none;align=left;verticalAlign=middle;spacingTop=-1;spacingLeft=3;spacingRight=3;rotatable=0;labelPosition=right;points=[];portConstraint=eastwest;" parent="BPLZNxsTZmLnbDWGY6EG-33" vertex="1">
          <mxGeometry y="80" width="160" height="8" as="geometry" />
        </mxCell>
        <mxCell id="BPLZNxsTZmLnbDWGY6EG-36" value="+ init()&#xa;+ addUploadListeners()&#xa;+ removeUploadListeners()&#xa;+ uploadData()" style="text;strokeColor=none;align=left;verticalAlign=top;spacingLeft=4;spacingRight=4;overflow=hidden;rotatable=0;points=[[0,0.5],[1,0.5]];portConstraint=eastwest;fillColor=#ffffff;" parent="BPLZNxsTZmLnbDWGY6EG-33" vertex="1">
          <mxGeometry y="88" width="160" height="72" as="geometry" />
        </mxCell>
        <mxCell id="9VmN0dgmtJ_7vDDzthu5-5" value="" style="endArrow=classic;html=1;strokeWidth=3;entryX=0.5;entryY=0;entryDx=0;entryDy=0;" edge="1" parent="1" target="BPLZNxsTZmLnbDWGY6EG-33">
          <mxGeometry width="50" height="50" relative="1" as="geometry">
            <mxPoint x="-360" y="600" as="sourcePoint" />
            <mxPoint x="-50" y="570" as="targetPoint" />
          </mxGeometry>
        </mxCell>
        <mxCell id="BPLZNxsTZmLnbDWGY6EG-25" value="Linker" style="swimlane;fontStyle=1;align=center;verticalAlign=top;childLayout=stackLayout;horizontal=1;startSize=26;horizontalStack=0;resizeParent=1;resizeParentMax=0;resizeLast=0;collapsible=1;marginBottom=0;" parent="1" vertex="1">
          <mxGeometry x="-10" y="110" width="220" height="740" as="geometry" />
        </mxCell>
        <mxCell id="BPLZNxsTZmLnbDWGY6EG-26" value="+ linkerList: DOM node&#xa;+ totalObjects: DOM node&#xa;+ currentPage: DOM node&#xa;+ totalPages: DOM node&#xa;+ saveButton: DOM node&#xa;+ checkButton: DOM node&#xa;+ similarButton: DOM node&#xa;+ deleteButton: DOM node&#xa;+ resetButton: DOM node&#xa;+ mainButton: DOM node&#xa;+ selectSimilarity: DOM node&#xa;+ selectSimilarityDisplay: DOM node&#xa;+ controlButtons: DOM node&#xa;+ controlButtonFuncs: DOM node&#xa;+ similarityInputWatchFn: DOM node&#xa;+ additionalContainer: DOM node&#xa;+ mainObjectSelect: DOM node&#xa;+ mainObjectAdd: DOM node&#xa;+ additionalObjects: DOM node&#xa;+ additionalObjectsFuncs: DOM node&#xa;+ currentlySelectedObject: DOM node&#xa;+ linkerListSelectButtons: DOM node&#xa;+ linkerListDetailsButtons: DOM node&#xa;+ listItemSelectFunc: DOM node&#xa;+ currentUniqueCodeEdit: DOM node&#xa;+ currentAdditionalIdEdit: DOM node&#xa;+ currentUniqueCode: DOM node&#xa;+ linkerState: DOM node&#xa;+ selectionState: DOM node" style="text;strokeColor=none;align=left;verticalAlign=top;spacingLeft=4;spacingRight=4;overflow=hidden;rotatable=0;points=[[0,0.5],[1,0.5]];portConstraint=eastwest;fillColor=#ffffff;" parent="BPLZNxsTZmLnbDWGY6EG-25" vertex="1">
          <mxGeometry y="26" width="220" height="414" as="geometry" />
        </mxCell>
        <mxCell id="BPLZNxsTZmLnbDWGY6EG-27" value="" style="line;strokeWidth=1;fillColor=none;align=left;verticalAlign=middle;spacingTop=-1;spacingLeft=3;spacingRight=3;rotatable=0;labelPosition=right;points=[];portConstraint=eastwest;" parent="BPLZNxsTZmLnbDWGY6EG-25" vertex="1">
          <mxGeometry y="440" width="220" height="8" as="geometry" />
        </mxCell>
        <mxCell id="BPLZNxsTZmLnbDWGY6EG-28" value="+ linkerInit()&#xa;+ fill()&#xa;+ saveFn()&#xa;+ checkFn()&#xa;+ similarityFn()&#xa;+ deleteFn()&#xa;+ resetFn()&#xa;+ goMainPageFn()&#xa;+ similarityInputWatch()&#xa;+ controlButtonsAddListeners()&#xa;+ controlButtonsRemoveListeners()&#xa;+ objectMainAdd()&#xa;+ objectMainSelect()&#xa;+ objectAdditionalSelect()&#xa;+ objectAdditionalRemove()&#xa;+ additionalObjectAddListeners()&#xa;+ listItemSelectFn()&#xa;+ linkerListSelectAddListeners()&#xa;+ linkerListSelectRemoveListeners()&#xa;+ checkYearAndDuplicate()" style="text;strokeColor=none;align=left;verticalAlign=top;spacingLeft=4;spacingRight=4;overflow=hidden;rotatable=0;points=[[0,0.5],[1,0.5]];portConstraint=eastwest;fillColor=#ffffff;" parent="BPLZNxsTZmLnbDWGY6EG-25" vertex="1">
          <mxGeometry y="448" width="220" height="292" as="geometry" />
        </mxCell>
        <mxCell id="9VmN0dgmtJ_7vDDzthu5-6" value="" style="endArrow=classic;html=1;strokeWidth=3;exitX=0.5;exitY=1;exitDx=0;exitDy=0;entryX=0.5;entryY=0;entryDx=0;entryDy=0;" edge="1" parent="1" source="BPLZNxsTZmLnbDWGY6EG-17" target="BPLZNxsTZmLnbDWGY6EG-25">
          <mxGeometry width="50" height="50" relative="1" as="geometry">
            <mxPoint x="30" y="410" as="sourcePoint" />
            <mxPoint x="80" y="360" as="targetPoint" />
            <Array as="points">
              <mxPoint x="-150" y="640" />
              <mxPoint x="-40" y="640" />
              <mxPoint x="-40" y="40" />
              <mxPoint x="100" y="40" />
            </Array>
          </mxGeometry>
        </mxCell>
        <mxCell id="BPLZNxsTZmLnbDWGY6EG-29" value="Dictionary" style="swimlane;fontStyle=1;align=center;verticalAlign=top;childLayout=stackLayout;horizontal=1;startSize=26;horizontalStack=0;resizeParent=1;resizeParentMax=0;resizeLast=0;collapsible=1;marginBottom=0;" parent="1" vertex="1">
          <mxGeometry x="240" y="80" width="250" height="750" as="geometry" />
        </mxCell>
        <mxCell id="BPLZNxsTZmLnbDWGY6EG-30" value="+ MINISTRY: DOM node&#xa;+ TERRITORY: DOM node&#xa;+ PROGRAM: DOM node&#xa;+ dictionaryContainer: DOM node&#xa;+ addNewRecord: DOM node&#xa;+ dictionarySearch: DOM node&#xa;+ autoSearchFn: DOM node&#xa;+ currentData: DOM node&#xa;+ itemControlEdit: DOM node&#xa;+ itemControlDelete: DOM node&#xa;+ itemControlAddEvent: DOM node&#xa;+ eventControlEdit: DOM node&#xa;+ eventControlDelete: DOM node&#xa;+ ministryCreateFn: DOM node&#xa;+ ministryEditFn: DOM node&#xa;+ ministryDeleteFn: DOM node&#xa;+ ministryDeleteQueryFn: DOM node&#xa;+ ministryUpdateQueryFn: DOM node&#xa;+ ministryCreateQueryFn: DOM node&#xa;+ territoryCreateFn: DOM node&#xa;+ territoryEditFn: DOM node&#xa;+ territoryDeleteFn: DOM node&#xa;+ territoryDeleteQueryFn: DOM node&#xa;+ territoryUpdateQueryFn: DOM node&#xa;+ territoryCreateQueryFn: DOM node&#xa;+ currentDictionaryId: DOM node&#xa;+ currentEventId: DOM node&#xa;+ currentDictionaryObject: DOM node&#xa;+ addEventItemFn: DOM node&#xa;+ addEventItemRemoveButtons: DOM node&#xa;+ addEventItemList: DOM node" style="text;strokeColor=none;align=left;verticalAlign=top;spacingLeft=4;spacingRight=4;overflow=hidden;rotatable=0;points=[[0,0.5],[1,0.5]];portConstraint=eastwest;fillColor=#ffffff;" parent="BPLZNxsTZmLnbDWGY6EG-29" vertex="1">
          <mxGeometry y="26" width="250" height="444" as="geometry" />
        </mxCell>
        <mxCell id="BPLZNxsTZmLnbDWGY6EG-31" value="" style="line;strokeWidth=1;fillColor=none;align=left;verticalAlign=middle;spacingTop=-1;spacingLeft=3;spacingRight=3;rotatable=0;labelPosition=right;points=[];portConstraint=eastwest;" parent="BPLZNxsTZmLnbDWGY6EG-29" vertex="1">
          <mxGeometry y="470" width="250" height="8" as="geometry" />
        </mxCell>
        <mxCell id="BPLZNxsTZmLnbDWGY6EG-32" value="+ init()&#xa;+ addListeners()&#xa;+ removeListeners()&#xa;+ autoSearch()&#xa;+ ministryCreate()&#xa;+ ministryDelete()&#xa;+ ministryEdit()&#xa;+ ministryDeleteQuery()&#xa;+ ministryUpdateQuery()&#xa;+ ministryCreateQuery()&#xa;+ territoryCreate()&#xa;+ territoryDelete()&#xa;+ territoryEdit()&#xa;+ territoryDeleteQuery()&#xa;+ territoryUpdateQuery()&#xa;+ territoryCreateQuery()&#xa;+ validateForm()&#xa;+ addEventItem()" style="text;strokeColor=none;align=left;verticalAlign=top;spacingLeft=4;spacingRight=4;overflow=hidden;rotatable=0;points=[[0,0.5],[1,0.5]];portConstraint=eastwest;fillColor=#ffffff;" parent="BPLZNxsTZmLnbDWGY6EG-29" vertex="1">
          <mxGeometry y="478" width="250" height="272" as="geometry" />
        </mxCell>
        <mxCell id="BPLZNxsTZmLnbDWGY6EG-13" value="utils" style="swimlane;fontStyle=1;align=center;verticalAlign=top;childLayout=stackLayout;horizontal=1;startSize=26;horizontalStack=0;resizeParent=1;resizeParentMax=0;resizeLast=0;collapsible=1;marginBottom=0;" parent="1" vertex="1">
          <mxGeometry x="-240" y="680" width="160" height="180" as="geometry" />
        </mxCell>
        <mxCell id="BPLZNxsTZmLnbDWGY6EG-14" value="" style="text;strokeColor=none;align=left;verticalAlign=top;spacingLeft=4;spacingRight=4;overflow=hidden;rotatable=0;points=[[0,0.5],[1,0.5]];portConstraint=eastwest;fillColor=#ffffff;" parent="BPLZNxsTZmLnbDWGY6EG-13" vertex="1">
          <mxGeometry y="26" width="160" height="24" as="geometry" />
        </mxCell>
        <mxCell id="BPLZNxsTZmLnbDWGY6EG-15" value="" style="line;strokeWidth=1;fillColor=none;align=left;verticalAlign=middle;spacingTop=-1;spacingLeft=3;spacingRight=3;rotatable=0;labelPosition=right;points=[];portConstraint=eastwest;" parent="BPLZNxsTZmLnbDWGY6EG-13" vertex="1">
          <mxGeometry y="50" width="160" height="8" as="geometry" />
        </mxCell>
        <mxCell id="BPLZNxsTZmLnbDWGY6EG-16" value="+ logger()&#xa;+ addressBarText()&#xa;+ linkerNode()&#xa;+ hierarchyNode()&#xa;+ uploadNode()&#xa;+ dictionaryNode()&#xa;+ fillMinistryOrTerritory()&#xa;+ addNewWindowMinistryOrTerritory()" style="text;strokeColor=none;align=left;verticalAlign=top;spacingLeft=4;spacingRight=4;overflow=hidden;rotatable=0;points=[[0,0.5],[1,0.5]];portConstraint=eastwest;fillColor=#ffffff;" parent="BPLZNxsTZmLnbDWGY6EG-13" vertex="1">
          <mxGeometry y="58" width="160" height="122" as="geometry" />
        </mxCell>
        <mxCell id="BPLZNxsTZmLnbDWGY6EG-21" value="Hierarchy" style="swimlane;fontStyle=1;align=center;verticalAlign=top;childLayout=stackLayout;horizontal=1;startSize=26;horizontalStack=0;resizeParent=1;resizeParentMax=0;resizeLast=0;collapsible=1;marginBottom=0;" parent="1" vertex="1">
          <mxGeometry x="520" y="80" width="160" height="390" as="geometry" />
        </mxCell>
        <mxCell id="BPLZNxsTZmLnbDWGY6EG-22" value="+ hierarchyContainer: DOM node&#xa;+ hierarchyButtons: DOM node&#xa;+ hierarchyButtonFunctions: DOM node&#xa;+ currentData: DOM node&#xa;+ currentUniqueCode: DOM node&#xa;+ hierarchyDetailWindow: DOM node&#xa;+ hierarchyDetailCloseButton: DOM node&#xa;+ hierarchyDetailExportButton: DOM node&#xa;+ currentPage: DOM node&#xa;+ totalPages: DOM node&#xa;+ totalObjects: DOM node&#xa;+ uniqueCodeToEdit: DOM node&#xa;+ lastState: DOM node&#xa;+ lastPage: DOM node" style="text;strokeColor=none;align=left;verticalAlign=top;spacingLeft=4;spacingRight=4;overflow=hidden;rotatable=0;points=[[0,0.5],[1,0.5]];portConstraint=eastwest;fillColor=#ffffff;" parent="BPLZNxsTZmLnbDWGY6EG-21" vertex="1">
          <mxGeometry y="26" width="160" height="204" as="geometry" />
        </mxCell>
        <mxCell id="BPLZNxsTZmLnbDWGY6EG-23" value="" style="line;strokeWidth=1;fillColor=none;align=left;verticalAlign=middle;spacingTop=-1;spacingLeft=3;spacingRight=3;rotatable=0;labelPosition=right;points=[];portConstraint=eastwest;" parent="BPLZNxsTZmLnbDWGY6EG-21" vertex="1">
          <mxGeometry y="230" width="160" height="8" as="geometry" />
        </mxCell>
        <mxCell id="BPLZNxsTZmLnbDWGY6EG-24" value="+ hierarchyInit()&#xa;+ fill()&#xa;+ objectDropdown()&#xa;+ objectDetails()&#xa;+ detailClose()&#xa;+ detailDownload()&#xa;+ objectEdit()&#xa;+ initListButtons()&#xa;+ addListeners()&#xa;+ removeListeners()" style="text;strokeColor=none;align=left;verticalAlign=top;spacingLeft=4;spacingRight=4;overflow=hidden;rotatable=0;points=[[0,0.5],[1,0.5]];portConstraint=eastwest;fillColor=#ffffff;" parent="BPLZNxsTZmLnbDWGY6EG-21" vertex="1">
          <mxGeometry y="238" width="160" height="152" as="geometry" />
        </mxCell>
        <mxCell id="9VmN0dgmtJ_7vDDzthu5-7" value="" style="endArrow=classic;html=1;strokeWidth=3;entryX=0.5;entryY=0;entryDx=0;entryDy=0;" edge="1" parent="1" target="BPLZNxsTZmLnbDWGY6EG-29">
          <mxGeometry width="50" height="50" relative="1" as="geometry">
            <mxPoint x="80" y="40" as="sourcePoint" />
            <mxPoint x="360" y="40" as="targetPoint" />
            <Array as="points">
              <mxPoint x="365" y="40" />
            </Array>
          </mxGeometry>
        </mxCell>
        <mxCell id="9VmN0dgmtJ_7vDDzthu5-8" value="" style="endArrow=classic;html=1;strokeWidth=3;entryX=0.5;entryY=0;entryDx=0;entryDy=0;" edge="1" parent="1">
          <mxGeometry width="50" height="50" relative="1" as="geometry">
            <mxPoint x="320" y="40" as="sourcePoint" />
            <mxPoint x="605" y="80" as="targetPoint" />
            <Array as="points">
              <mxPoint x="605" y="40" />
            </Array>
          </mxGeometry>
        </mxCell>
      </root>
    </mxGraphModel>
  </diagram>
</mxfile>
